{"title":"Count of Monte Cristo, The (ENG)(NL SUBS) 2Lions-Team","uid":5149384,"size":4524600483,"categoryP":"video","categoryS":"movies_dvdr","magnet":"?xt=urn:btih:c54e0cbacf7f12efb1c7e402bee845ec7a4c4b17&amp;dn=Count+of+Monte+Cristo%2C+The+%28ENG%29%28NL+SUBS%29+2Lions-Team&amp;tr=udp%3A%2F%2Ftracker.openbittorrent.com%3A80&amp;tr=udp%3A%2F%2Fopen.demonii.com%3A1337&amp;tr=udp%3A%2F%2Ftracker.coppersurfer.tk%3A6969&amp;tr=udp%3A%2F%2Fexodus.desync.com%3A6969","seeders":1,"leechers":0,"uploader":"Pioen","files":-1,"time":1257464153,"description":"Count of Monte Cristo, The (2002)        \n \n \n  Verenigd Koninkrijk / Verenigde Staten / Ierland\nAvontuur / Actie\n131 minuten\n\ngeregisseerd door Kevin Reynolds\nmet James Caviezel, Guy Pearce en Richard Harris\n\nDe schipper Edmond Dantes wordt onterecht veroordeeld van verraad na een brief aangenomen te hebben van de verbannen Napoleon. Zijn 'beste vriend' Fernand is verantwoordelijk voor het feit dat hij opgepakt wordt, aangezien hij uit is op de verloofde van Edmond. Dantes komt vast te zitten op het Chateau d'If, waar hij wraak zweert op de personen die verantwoordelijk zijn voor zijn arrestatie.\n\n\nEnglish\n\n'The Count of Monte Cristo' is a remake of the Alexander Dumas tale by the same name. Dantes, a sailor who is falsely accused of treason by his best friend Fernand, who wants Dantes' girlfriend Mercedes for himself. Dantes is imprisoned on the island prison of Chateau d'If for 13 years, where he plots revenge against those who betrayed him. With the help of another prisoner, he escapes the island and proceeds to transform himself into the wealthy Count of Monte Cristo as part of his plan to exact revenge.\n\n\n\n\nMenu: Nee. \nAudio: Engels 5.1DD. \nSubs: NL instelbaar. \nCover:\nBestand: VTS. \nSpotinformatie \nCategorie : Beeld \nFormaat : DVD5 \nBron : Retail\n Ondertitels : Nederlands (instelbaar)\n\nFormat                           : MPEG-PS\nFile size                        : 1 024 MiB\nDuration                         : 29mn 57s\nOverall bit rate                 : 4 780 Kbps\n\nVideo\nID                               : 224 (0xE0)\nFormat                           : MPEG Video\nFormat version                   : Version 2\nFormat profile                   : Main@Main\nFormat settings, Matrix          : Default\nDuration                         : 29mn 57s\nBit rate mode                    : Variable\nBit rate                         : 4 206 Kbps\nNominal bit rate                 : 7 000 Kbps\nWidth                            : 720 pixels\nHeight                           : 576 pixels\nDisplay aspect ratio             : 16/9\nFrame rate                       : 25.000 fps\nStandard                         : PAL\nColorimetry                      : 4:2:0\nScan type                        : Interlaced\nScan order                       : Top Field First\nBits/(Pixel*Frame)               : 0.406\nStream size                      : 901 MiB (88%)\n\nAudio\nID                               : 128 (0x80)\nFormat                           : AC-3\nFormat/Info                      : Audio Coding 3\nDuration                         : 29mn 56s\nBit rate mode                    : Constant\nBit rate                         : 384 Kbps\nChannel(s)                       : 6 channels\nChannel positions                : Front: L C R, Surround: L R, LFE\nSampling rate                    : 48.0 KHz\nStream size                      : 82.3 MiB (8%)\n\nText\nID                               : 38 (0x26)\nFormat                           : RLE\nFormat/Info                      : Run-length encoding\n\nMenu\nFormat                           : DVD-Video\n \n \nGenre : Actie\nAvontuur\n \nWeblink : http://www.moviemeter.nl/film/886 \nWeblink : http://www.imdb.com/title/tt0245844\n\n \n***************************************** \n\nBrought to you by \nPioen \n2Lions Team \n\n\n\nmeer zien?? \nKom dan eens kijken op ons forum \n &lt;a href=&quot;\nhttp://www.2lions.ons-forum.nl&quot; rel=&quot;nofollow&quot; target=&quot;_NEW&quot;&gt;\nhttp://www.2lions.ons-forum.nl&lt;/a&gt; \n\n2Lions-Team for all your Dutch MOVIES and more \n\n***************************************** \n\nDON T HIT AND RUN Niet gelijk afhaken als de film binnen is blijf seeden.","torrent":{"xt":"urn:btih:c54e0cbacf7f12efb1c7e402bee845ec7a4c4b17","amp;dn":"Count+of+Monte+Cristo%2C+The+%28ENG%29%28NL+SUBS%29+2Lions-Team","amp;tr":["udp%3A%2F%2Ftracker.openbittorrent.com%3A80","udp%3A%2F%2Fopen.demonii.com%3A1337","udp%3A%2F%2Ftracker.coppersurfer.tk%3A6969","udp%3A%2F%2Fexodus.desync.com%3A6969"],"infoHash":"c54e0cbacf7f12efb1c7e402bee845ec7a4c4b17","infoHashBuffer":{"type":"Buffer","data":[197,78,12,186,207,127,18,239,177,199,228,2,190,232,69,236,122,76,75,23]},"announce":[],"urlList":[]}}